:SAMPLES-PER-SECOND 30
:FULLY-SPECIFIED
:DEGREES
409
root  15.9374 37.7045 -8.19848 -5.9375 83.7408 -2.99164
RightUpLeg  -24.8098 -6.38839 -1.30367
RightLeg  12.8392 0.912148 0.979106
RightFoot  -6.92065 -0.359675 8.07209
RightToes  -8.3237e-009 0 -3.6325e-017
Spine  6.88285 -1.67267 1.50319
Spine1  7.79026 -1.40696 1.70465
HEad  -15.9285 3.78788 -1.62813
LeftShoulder1  -0.349401 4.45428 -30.57
LeftArm  19.0915 -14.5978 -48.9238
LeftForeArm  16.7865 -21.2111 -4.79997
LeftHand  -0.0268308 6.95454 0.773383
RightShoulder  -0.749304 -5.58424 29.358
RightArm  12.6478 -17.2336 42.599
RightForeArm  17.3226 9.66921 5.98622
RightHand  -0.099227 5.0664 -1.41186
LeftUpLeg  13.8412 4.73141 5.20079
LeftLeg  1.24301 -25.0705 -1.53682
LeftFoot  -23.2686 -2.94665 -28.9552
LeftToes  -1.18267e-011 3.61711e-011 9.57411e-011
410
root  17.0396 37.4847 -8.12042 -3.15332 83.2642 -0.392944
RightUpLeg  -24.9 -5.9083 -0.750159
RightLeg  11.0264 -0.799172 0.704021
RightFoot  -6.72017 -0.415174 9.08835
RightToes  -8.3237e-009 0 -3.6325e-017
Spine  5.84591 -1.48044 1.8676
Spine1  9.13768 -1.18152 1.85087
HEad  -16.4355 3.82103 -2.2337
LeftShoulder1  -0.43765 4.66664 -31.5118
LeftArm  19.834 -15.1525 -48.5331
LeftForeArm  15.9397 -23.0114 -4.25318
LeftHand  -0.0202682 6.6044 1.31804
RightShoulder  -0.737452 -5.59693 28.5776
RightArm  12.4182 -16.3994 43.2093
RightForeArm  18.3848 8.85893 6.09824
RightHand  -0.0596868 5.21029 -0.91787
LeftUpLeg  15.4037 4.86577 5.14667
LeftLeg  1.66173 -25.9994 -1.87338
LeftFoot  -24.819 -3.34811 -29.0057
LeftToes  -1.18267e-011 3.61711e-011 9.57411e-011
411
root  18.1761 37.2333 -7.98922 -2.54144 83.1216 0.0205841
RightUpLeg  -25.2853 -5.53651 0.160324
RightLeg  13.623 -3.21239 0.237489
RightFoot  -5.57026 -0.342184 6.13307
RightToes  -8.3237e-009 0 -3.6325e-017
Spine  5.64396 -1.59745 2.54551
Spine1  8.9593 -1.15518 1.76145
HEad  -16.7704 3.79015 -2.4392
LeftShoulder1  -0.42765 4.64724 -31.2534
LeftArm  18.6701 -13.8567 -48.4367
LeftForeArm  16.8141 -24.5929 -4.35606
LeftHand  -0.0196577 6.37061 1.53715
RightShoulder  -0.753407 -5.6202 28.9509
RightArm  12.7688 -15.5566 42.7832
RightForeArm  20.3106 8.65669 6.1602
RightHand  0.0839625 4.25661 0.709845
LeftUpLeg  16.3623 4.85953 5.30039
LeftLeg  3.45231 -27.2617 -2.60436
LeftFoot  -26.752 -3.8496 -29.051
LeftToes  -1.18267e-011 3.61711e-011 9.57411e-011
412
root  19.3624 37.0368 -7.82181 -9.18744 83.8242 -6.59227
RightUpLeg  -25.571 -5.34295 1.50957
RightLeg  17.5602 -3.2614 0.0130334
RightFoot  -1.6829 -0.113936 1.45001
RightToes  -8.3237e-009 0 -3.6325e-017
Spine  5.43087 -2.01556 3.477
Spine1  9.23817 -1.71649 2.95444
HEad  -17.4446 4.15084 -2.59596
LeftShoulder1  -0.480549 4.77828 -31.568
LeftArm  18.0635 -12.1448 -48.0041
LeftForeArm  16.9311 -25.7307 -4.6183
LeftHand  -0.00850547 6.41101 2.56502
RightShoulder  -0.758673 -5.63943 28.8788
RightArm  13.0044 -14.5515 42.7347
RightForeArm  19.9536 8.53065 6.301
RightHand  -0.0116885 4.01425 -0.411141
LeftUpLeg  17.4026 4.47466 6.37463
LeftLeg  5.50212 -29.0736 -3.38589
LeftFoot  -28.2975 -4.25912 -29.123
LeftToes  -1.18267e-011 3.61711e-011 9.57411e-011
413
root  20.5993 36.9264 -7.62275 -21.4079 84.2611 -18.7466
RightUpLeg  -26.0741 -4.94483 2.96113
RightLeg  21.1047 -1.76164 -0.0388029
RightFoot  3.31066 0.238705 -1.81459
RightToes  -8.3237e-009 0 -3.6325e-017
Spine  5.31884 -2.32882 5.5825
Spine1  9.3422 -1.95399 3.51391
HEad  -17.1654 3.85056 -3.34292
LeftShoulder1  -0.454378 4.70302 -31.7498
LeftArm  18.3764 -9.94229 -47.6765
LeftForeArm  17.5374 -25.9194 -4.62749
LeftHand  -0.0231704 5.66741 2.23953
RightShoulder  -0.842575 -5.84706 29.3408
RightArm  12.7009 -13.6871 42.3017
RightForeArm  19.6991 9.0571 6.10048
RightHand  0.0383455 4.08806 0.190049
LeftUpLeg  18.0106 3.14717 7.81397
LeftLeg  8.65661 -30.0851 -4.95959
LeftFoot  -29.2371 -4.51132 -29.1793
LeftToes  -1.18267e-011 3.61711e-011 9.57411e-011
414
root  21.8763 36.7943 -7.42909 -33.5766 83.607 -30.7139
RightUpLeg  -26.0544 -4.64087 4.70928
RightLeg  25.5966 -1.5521 -0.826074
RightFoot  1.65488 0.32364 -2.74028
RightToes  -8.3237e-009 0 -3.6325e-017
Spine  4.96621 -2.43439 8.38651
Spine1  9.78881 -1.62759 3.19463
HEad  -17.1547 3.25435 -4.31211
LeftShoulder1  -0.469919 4.73398 -32.0515
LeftArm  19.329 -7.55306 -47.4495
LeftForeArm  16.7436 -25.2982 -4.52059
LeftHand  -0.0179621 5.9295 2.46773
RightShoulder  -0.899315 -5.98251 29.6822
RightArm  11.8514 -11.8101 42.373
RightForeArm  18.2205 8.70926 5.9206
RightHand  0.0521324 4.52295 0.343607
LeftUpLeg  17.5208 1.35262 9.30742
LeftLeg  14.9343 -30.1064 -8.44965
LeftFoot  -29.8892 -4.61884 -28.8217
LeftToes  -1.18267e-011 3.61711e-011 9.57411e-011
